<?xml version="1.0" encoding="utf-8"?>
<!-- Generator: Adobe Illustrator 24.1.3, SVG Export Plug-In . SVG Version: 6.00 Build 0)  -->
<svg version="1.1" xmlns="http://www.w3.org/2000/svg" xmlns:xlink="http://www.w3.org/1999/xlink" x="0px" y="0px"
	 viewBox="0 0 1484.49 801" style="enable-background:new 0 0 1484.49 801;" xml:space="preserve">
<style type="text/css">
	.st0{fill-rule:evenodd;clip-rule:evenodd;fill:#82DEFF;}
	.st1{fill-rule:evenodd;clip-rule:evenodd;fill:#FFFF00;}
	.st2{fill-rule:evenodd;clip-rule:evenodd;fill:#FFFFFF;}
	.st3{fill:#58C052;}
	.st4{fill:#FFFFFF;}
	.st5{fill:#F1F1F1;}
	.st6{fill:#42210B;}
	.st7{fill:#656A41;}
	.st8{fill:#B71F24;}
	.st9{fill:#D6941E;}
	.st10{fill:#CED0D1;}
	.st11{fill:#E1DFDF;}
	.st12{fill:#C86C38;}
	.st13{fill:#FF5353;}
	.st14{fill:#BA9A9A;}
	.st15{fill:#FFF3F3;}
	.st16{fill:#FBB613;}
	.st17{fill:#E3E4E5;}
	.st18{fill:#8BC53F;}
	.st19{fill:#39B44A;}
	.st20{fill:#D6AEAE;}
	.st21{fill:#439F3C;}
	.st22{fill:#5AC53F;}
	.st23{fill:#D8DF21;}
	.st24{fill:#603813;}
	.st25{fill:none;}
</style>
<g id="Layer_5">
	<g>
		<rect x="3.45" y="-1.09" class="st0" width="1481.03" height="594.76"/>
		
			<ellipse transform="matrix(0.8112 -0.5847 0.5847 0.8112 134.593 582.4775)" class="st1" cx="969.46" cy="82.78" rx="54.58" ry="54.58"/>
		<path class="st2" d="M233.96,169.35h80.71c12.64,0,22.88-10.24,22.88-22.88c0-12.63-10.24-22.88-22.88-22.88h-80.71V169.35z"/>
		<rect x="3.45" y="568.26" class="st3" width="1481.03" height="232.81"/>
		<polygon class="st4" points="682.34,600.56 573.2,801.07 1012.6,801.07 884.4,600.56 		"/>
		<polygon class="st5" points="1206.24,327.55 1206.24,217.74 1150.68,217.74 1150.68,338.99 1098.25,338.99 1098.25,459.64 
			1055.14,459.64 1055.14,526.2 1051.46,526.2 1051.46,278.66 1035.96,278.66 1035.96,221.26 971.34,181.01 971.34,278.66 
			957.81,278.66 957.81,118.45 911.13,145.87 911.13,234.98 867.11,234.98 867.11,312.51 839.3,312.51 839.3,187.13 810.72,187.13 
			810.72,338.99 767.19,338.98 767.19,224.58 716.85,224.58 716.85,293.1 716.85,293.1 716.57,169.35 659.73,138.01 659.73,293.1 
			623.13,293.1 623.13,388.91 588.05,388.91 588.05,234.98 560.69,234.98 560.69,166.33 546.42,166.33 546.42,138.01 496.15,138.01 
			496.15,166.33 481.88,166.33 481.88,338.98 435.98,338.98 435.98,224.58 388.41,224.58 388.41,363.95 351.62,363.95 
			351.62,166.33 314.94,166.33 314.94,241.31 307.48,241.31 307.48,136 233.96,197.53 233.96,526.2 233.96,580.29 307.48,580.29 
			310.58,580.29 388.41,580.29 399.3,580.29 431.47,580.29 435.98,580.29 481.88,580.29 484.51,580.29 550.01,580.29 560.69,580.29 
			574.24,580.29 588.05,580.29 623.13,580.29 632.64,580.29 716.85,580.29 724.06,580.29 759.91,580.29 767.19,580.29 
			810.72,580.29 825.01,580.29 839.3,580.29 867.11,580.29 872.06,580.29 911.13,580.29 915.06,580.29 950.07,580.29 957.81,580.29 
			1051.46,580.29 1055.14,580.29 1098.25,580.29 1115.79,580.29 1150.68,580.29 1158.9,580.29 1190.47,580.29 1206.24,580.29 
			1239.79,580.29 1253.98,580.29 1253.98,327.55 		"/>
		<rect x="487.61" y="323.9" class="st6" width="599.31" height="6.66"/>
		<path class="st7" d="M607.97,554.64c3.68-2.18,5.82-5.97,5.08-9.74c-0.51-2.61-2.31-4.7-4.76-5.95c3.76-2.81,5.51-7.28,3.98-11.13
			c-1.31-3.3-4.68-5.28-8.56-5.45c0.03-0.05,0.06-0.1,0.08-0.15c2.85-5.6,1.3-12.09-3.45-14.51c-3.09-1.57-6.78-1.02-9.76,1.1
			c-0.08-6.2-4.48-11.2-9.89-11.2c-3.79,0-7.08,2.45-8.75,6.05c-2.13-3.56-5.88-5.69-9.78-5.12c-5.41,0.8-9.05,6.48-8.14,12.69
			c0.01,0.08,0.03,0.15,0.04,0.23c-2.11-1.06-4.43-1.44-6.59-1.05c-0.78-0.18-1.59-0.29-2.41-0.32c0.03-0.06,0.06-0.11,0.09-0.17
			c3.2-6.31,1.46-13.63-3.9-16.36c-3.49-1.77-7.64-1.15-11,1.23c-0.09-6.99-5.05-12.62-11.15-12.62c-4.28,0-7.99,2.77-9.87,6.82
			c-2.4-4.01-6.62-6.41-11.02-5.77c-6.1,0.9-10.21,7.3-9.18,14.3c0.01,0.09,0.04,0.17,0.05,0.26c-3.81-1.92-8.21-1.86-11.52,0.57
			c-1.02,0.75-1.84,1.66-2.49,2.68c-1.46-1.09-3.2-1.73-5.07-1.73c-3.57,0-6.66,2.31-8.22,5.69c-2-3.34-5.52-5.35-9.19-4.81
			c-5.08,0.75-8.51,6.08-7.65,11.92c0.01,0.07,0.03,0.14,0.04,0.21c-2.67-1.34-5.69-1.51-8.23-0.32c-0.74-2.24-2.22-4.11-4.32-5.18
			c-3.09-1.57-6.78-1.02-9.76,1.09c-0.08-6.19-4.47-11.2-9.89-11.2c-3.79,0-7.08,2.46-8.75,6.05c-2.13-3.56-5.87-5.69-9.78-5.11
			c-5.41,0.79-9.05,6.47-8.14,12.68c0.01,0.08,0.03,0.15,0.04,0.23c-3.38-1.7-7.28-1.65-10.22,0.5c-4.41,3.23-4.98,9.96-1.27,15.02
			c0.15,0.21,0.31,0.39,0.47,0.59c-3.04,0.35-5.73,1.89-7.28,4.35c-0.39-0.06-0.79-0.11-1.2-0.13c0.02-0.04,0.05-0.08,0.07-0.12
			c2.32-4.57,1.06-9.88-2.82-11.85c-2.53-1.28-5.54-0.83-7.97,0.89c-0.06-5.06-3.65-9.15-8.08-9.15c-3.1,0-5.79,2-7.15,4.94
			c-1.74-2.91-4.8-4.65-7.99-4.18c-4.42,0.65-7.4,5.29-6.65,10.36c0.01,0.06,0.03,0.12,0.04,0.19c-1.54-0.78-3.21-1.09-4.8-0.92
			c0.32-1.69,0.2-3.41-0.45-5.03c-1.47-3.72-5.28-5.95-9.65-6.14c0.03-0.06,0.07-0.11,0.09-0.17c3.21-6.31,1.46-13.63-3.9-16.36
			c-3.49-1.77-7.64-1.15-11,1.23c-0.09-6.99-5.05-12.62-11.15-12.62c-4.28,0-7.99,2.77-9.86,6.82c-2.4-4.01-6.62-6.42-11.02-5.77
			c-6.1,0.9-10.21,7.3-9.18,14.3c0.01,0.09,0.04,0.17,0.05,0.26c-3.81-1.92-8.21-1.86-11.52,0.57c-4.9,3.59-5.58,11.02-1.58,16.69
			c-4.88-0.33-9.44,1.95-11.34,6.16c-2.02,4.48-0.4,9.79,3.61,13.22c-0.03,0.01-0.07,0.01-0.1,0.01
			c-7.02,0.92-12.05,6.63-11.25,12.74c0.43,3.32,2.51,6.06,5.43,7.74c-4.5,3.28-6.53,8.79-4.56,13.53c1.08,2.6,3.17,4.5,5.75,5.56
			c-0.39,1.95-0.25,3.97,0.53,5.87c1.93,4.64,7.08,7.1,12.46,6.38h71.45c0.93,0.15,1.9,0.17,2.88,0.03h5.74
			c1.01,0.11,2.02,0.11,2.99,0h49.04c1.83,0.25,3.63-0.02,5.16-0.73c2.01,0.81,4.35,1.05,6.7,0.57h44.04
			c1.22,0.26,2.51,0.32,3.82,0.14h37.37c1.47,0.32,3.04,0.39,4.63,0.18h79.73c1.39,0.18,2.76,0.16,4.06-0.06
			c13.44-0.05,32.78-0.12,36.38-0.12c5.61,0,10.89,0.02,12.81-4.6c1.43-3.44,0.49-7.35-2.09-10.25c2.87-1.45,4.94-4.02,5.35-7.16
			C613.25,560.33,611.27,556.77,607.97,554.64z"/>
		<path class="st7" d="M1256.24,554.64c3.68-2.18,5.82-5.97,5.08-9.74c-0.51-2.61-2.31-4.7-4.76-5.95
			c3.76-2.81,5.51-7.28,3.99-11.13c-1.31-3.3-4.68-5.28-8.56-5.45c0.03-0.05,0.06-0.1,0.08-0.15c2.84-5.6,1.3-12.09-3.45-14.51
			c-3.09-1.57-6.78-1.02-9.76,1.1c-0.08-6.2-4.47-11.2-9.89-11.2c-3.79,0-7.08,2.45-8.75,6.05c-2.13-3.56-5.88-5.69-9.78-5.12
			c-5.41,0.8-9.05,6.48-8.14,12.69c0.01,0.08,0.03,0.15,0.04,0.23c-2.11-1.06-4.43-1.44-6.59-1.05c-0.78-0.18-1.59-0.29-2.42-0.32
			c0.03-0.06,0.06-0.11,0.09-0.17c3.2-6.31,1.46-13.63-3.9-16.36c-3.49-1.77-7.64-1.15-11,1.23c-0.09-6.99-5.05-12.62-11.15-12.62
			c-4.28,0-7.99,2.77-9.87,6.82c-2.4-4.01-6.62-6.42-11.02-5.77c-6.1,0.9-10.21,7.3-9.18,14.3c0.01,0.09,0.04,0.17,0.05,0.26
			c-3.81-1.92-8.21-1.86-11.52,0.57c-1.02,0.75-1.84,1.66-2.49,2.68c-1.46-1.09-3.2-1.73-5.07-1.73c-3.57,0-6.66,2.31-8.22,5.69
			c-2-3.34-5.52-5.35-9.19-4.81c-5.08,0.75-8.51,6.08-7.65,11.92c0.01,0.07,0.03,0.14,0.04,0.21c-2.67-1.34-5.69-1.51-8.23-0.32
			c-0.74-2.24-2.22-4.11-4.32-5.18c-3.09-1.57-6.78-1.02-9.76,1.09c-0.08-6.19-4.47-11.2-9.89-11.2c-3.79,0-7.08,2.46-8.75,6.05
			c-2.13-3.56-5.87-5.69-9.78-5.11c-5.41,0.79-9.05,6.47-8.14,12.68c0.01,0.08,0.03,0.15,0.04,0.23c-3.38-1.7-7.28-1.65-10.22,0.5
			c-4.41,3.23-4.98,9.96-1.26,15.02c0.15,0.21,0.31,0.39,0.47,0.59c-3.03,0.35-5.73,1.89-7.28,4.35c-0.39-0.06-0.79-0.11-1.2-0.13
			c0.02-0.04,0.05-0.08,0.07-0.12c2.32-4.57,1.06-9.88-2.83-11.85c-2.53-1.28-5.54-0.83-7.97,0.89c-0.07-5.06-3.66-9.15-8.08-9.15
			c-3.1,0-5.79,2-7.15,4.94c-1.74-2.91-4.8-4.65-7.99-4.18c-4.42,0.65-7.4,5.29-6.65,10.36c0.01,0.06,0.03,0.12,0.04,0.19
			c-1.54-0.78-3.21-1.09-4.8-0.92c0.32-1.69,0.2-3.41-0.45-5.03c-1.47-3.72-5.28-5.95-9.65-6.14c0.03-0.06,0.07-0.11,0.09-0.17
			c3.21-6.31,1.46-13.63-3.9-16.36c-3.49-1.77-7.64-1.15-11,1.23c-0.09-6.99-5.04-12.62-11.15-12.62c-4.28,0-7.99,2.77-9.86,6.82
			c-2.4-4.01-6.62-6.42-11.02-5.77c-6.1,0.9-10.21,7.3-9.18,14.3c0.01,0.09,0.04,0.17,0.05,0.26c-3.81-1.92-8.21-1.86-11.52,0.57
			c-4.9,3.59-5.58,11.02-1.59,16.69c-4.88-0.33-9.44,1.95-11.34,6.16c-2.02,4.48-0.4,9.79,3.61,13.22c-0.03,0.01-0.07,0.01-0.1,0.01
			c-7.02,0.92-12.05,6.63-11.25,12.74c0.43,3.32,2.51,6.06,5.43,7.74c-4.5,3.28-6.53,8.79-4.56,13.53c1.08,2.6,3.17,4.5,5.75,5.56
			c-0.39,1.95-0.25,3.97,0.53,5.87c1.93,4.64,7.08,7.1,12.46,6.38h71.45c0.93,0.15,1.9,0.17,2.88,0.03h5.74
			c1.01,0.11,2.01,0.11,2.99,0h49.04c1.83,0.25,3.63-0.02,5.16-0.73c2.01,0.81,4.35,1.05,6.7,0.57h44.04
			c1.22,0.26,2.51,0.32,3.82,0.14h37.37c1.47,0.32,3.04,0.39,4.64,0.18h79.73c1.39,0.18,2.76,0.16,4.06-0.06
			c13.44-0.05,32.78-0.12,36.38-0.12c5.61,0,10.89,0.02,12.81-4.6c1.43-3.44,0.49-7.35-2.09-10.25c2.87-1.45,4.94-4.02,5.35-7.16
			C1261.52,560.33,1259.55,556.77,1256.24,554.64z"/>
		<g>
			<polygon class="st8" points="1138.2,387.22 880,387.22 880,330.56 1086.38,330.56 			"/>
			<rect x="881.8" y="387.22" class="st9" width="210.44" height="155.91"/>
			<rect x="881.8" y="543.14" class="st10" width="215.85" height="21.22"/>
		</g>
		<g>
			<polygon class="st8" points="437.91,387.22 693.99,387.22 693.99,330.56 487.61,330.56 			"/>
			<rect x="481.75" y="387.22" class="st9" width="210.44" height="155.91"/>
			<rect x="476.34" y="543.14" class="st10" width="215.85" height="21.22"/>
		</g>
		<rect x="481.75" y="387.22" class="st11" width="610.42" height="3.49"/>
		<rect x="687.23" y="390.72" class="st11" width="4.96" height="163.03"/>
		<rect x="683.18" y="447.49" class="st11" width="4.05" height="22.87"/>
		<g>
			<g>
				<rect x="506.94" y="410.43" class="st4" width="23.47" height="41.3"/>
				<rect x="506.94" y="410.43" class="st4" width="23.47" height="41.3"/>
				<rect x="505.38" y="451.73" class="st12" width="26.58" height="1.88"/>
				<rect x="505.38" y="408.55" class="st12" width="26.58" height="1.88"/>
				<rect x="505.38" y="430.14" class="st12" width="26.58" height="1.88"/>
				<rect x="505.38" y="410.43" class="st12" width="1.88" height="41.3"/>
				<rect x="517.73" y="410.43" class="st12" width="1.88" height="41.3"/>
				<rect x="530.08" y="410.43" class="st12" width="1.88" height="41.3"/>
				<rect x="506.94" y="410.43" class="st4" width="23.47" height="41.3"/>
				<rect x="506.94" y="410.43" class="st4" width="23.47" height="41.3"/>
				<rect x="505.38" y="451.73" class="st12" width="26.58" height="1.88"/>
				<rect x="505.38" y="408.55" class="st12" width="26.58" height="1.88"/>
				<rect x="505.38" y="430.14" class="st12" width="26.58" height="1.88"/>
				<rect x="505.38" y="410.43" class="st12" width="1.88" height="41.3"/>
				<rect x="517.73" y="410.43" class="st12" width="1.88" height="41.3"/>
				<rect x="530.08" y="410.43" class="st12" width="1.88" height="41.3"/>
			</g>
			<g>
				<rect x="545.59" y="410.43" class="st4" width="23.47" height="41.3"/>
				<rect x="545.59" y="410.43" class="st4" width="23.47" height="41.3"/>
				<rect x="544.03" y="451.73" class="st12" width="26.58" height="1.88"/>
				<rect x="544.03" y="408.55" class="st12" width="26.58" height="1.88"/>
				<rect x="544.03" y="430.14" class="st12" width="26.58" height="1.88"/>
				<rect x="544.03" y="410.43" class="st12" width="1.88" height="41.3"/>
				<rect x="556.38" y="410.43" class="st12" width="1.88" height="41.3"/>
				<rect x="568.73" y="410.43" class="st12" width="1.88" height="41.3"/>
				<rect x="545.59" y="410.43" class="st4" width="23.47" height="41.3"/>
				<rect x="545.59" y="410.43" class="st4" width="23.47" height="41.3"/>
				<rect x="544.03" y="451.73" class="st12" width="26.58" height="1.88"/>
				<rect x="544.03" y="408.55" class="st12" width="26.58" height="1.88"/>
				<rect x="544.03" y="430.14" class="st12" width="26.58" height="1.88"/>
				<rect x="544.03" y="410.43" class="st12" width="1.88" height="41.3"/>
				<rect x="556.38" y="410.43" class="st12" width="1.88" height="41.3"/>
				<rect x="568.73" y="410.43" class="st12" width="1.88" height="41.3"/>
			</g>
			<g>
				<rect x="584.24" y="410.43" class="st4" width="23.47" height="41.3"/>
				<rect x="584.24" y="410.43" class="st4" width="23.47" height="41.3"/>
				<rect x="582.68" y="451.73" class="st12" width="26.58" height="1.88"/>
				<rect x="582.68" y="408.55" class="st12" width="26.58" height="1.88"/>
				<rect x="582.68" y="430.14" class="st12" width="26.58" height="1.88"/>
				<rect x="582.68" y="410.43" class="st12" width="1.88" height="41.3"/>
				<rect x="595.03" y="410.43" class="st12" width="1.88" height="41.3"/>
				<rect x="607.38" y="410.43" class="st12" width="1.88" height="41.3"/>
				<rect x="584.24" y="410.43" class="st4" width="23.47" height="41.3"/>
				<rect x="584.24" y="410.43" class="st4" width="23.47" height="41.3"/>
				<rect x="582.68" y="451.73" class="st12" width="26.58" height="1.88"/>
				<rect x="582.68" y="408.55" class="st12" width="26.58" height="1.88"/>
				<rect x="582.68" y="430.14" class="st12" width="26.58" height="1.88"/>
				<rect x="582.68" y="410.43" class="st12" width="1.88" height="41.3"/>
				<rect x="595.03" y="410.43" class="st12" width="1.88" height="41.3"/>
				<rect x="607.38" y="410.43" class="st12" width="1.88" height="41.3"/>
			</g>
			<g>
				<rect x="622.89" y="410.43" class="st4" width="23.47" height="41.3"/>
				<rect x="622.89" y="410.43" class="st4" width="23.47" height="41.3"/>
				<rect x="621.33" y="451.73" class="st12" width="26.58" height="1.88"/>
				<rect x="621.33" y="408.55" class="st12" width="26.58" height="1.88"/>
				<rect x="621.33" y="430.14" class="st12" width="26.58" height="1.88"/>
				<rect x="621.33" y="410.43" class="st12" width="1.88" height="41.3"/>
				<rect x="633.68" y="410.43" class="st12" width="1.88" height="41.3"/>
				<rect x="646.03" y="410.43" class="st12" width="1.88" height="41.3"/>
				<rect x="622.89" y="410.43" class="st4" width="23.47" height="41.3"/>
				<rect x="622.89" y="410.43" class="st4" width="23.47" height="41.3"/>
				<rect x="621.33" y="451.73" class="st12" width="26.58" height="1.88"/>
				<rect x="621.33" y="408.55" class="st12" width="26.58" height="1.88"/>
				<rect x="621.33" y="430.14" class="st12" width="26.58" height="1.88"/>
				<rect x="621.33" y="410.43" class="st12" width="1.88" height="41.3"/>
				<rect x="633.68" y="410.43" class="st12" width="1.88" height="41.3"/>
				<rect x="646.03" y="410.43" class="st12" width="1.88" height="41.3"/>
			</g>
			<g>
				<rect x="506.94" y="475.16" class="st4" width="23.47" height="41.3"/>
				<rect x="506.94" y="475.16" class="st4" width="23.47" height="41.3"/>
				<rect x="505.38" y="516.46" class="st12" width="26.58" height="1.88"/>
				<rect x="505.38" y="473.28" class="st12" width="26.58" height="1.88"/>
				<rect x="505.38" y="494.88" class="st12" width="26.58" height="1.87"/>
				<rect x="505.38" y="475.16" class="st12" width="1.88" height="41.3"/>
				<rect x="517.73" y="475.16" class="st12" width="1.88" height="41.3"/>
				<rect x="530.08" y="475.16" class="st12" width="1.88" height="41.3"/>
				<rect x="506.94" y="475.16" class="st4" width="23.47" height="41.3"/>
				<rect x="506.94" y="475.16" class="st4" width="23.47" height="41.3"/>
				<rect x="505.38" y="516.46" class="st12" width="26.58" height="1.88"/>
				<rect x="505.38" y="473.28" class="st12" width="26.58" height="1.88"/>
				<rect x="505.38" y="494.88" class="st12" width="26.58" height="1.87"/>
				<rect x="505.38" y="475.16" class="st12" width="1.88" height="41.3"/>
				<rect x="517.73" y="475.16" class="st12" width="1.88" height="41.3"/>
				<rect x="530.08" y="475.16" class="st12" width="1.88" height="41.3"/>
			</g>
			<g>
				<rect x="545.59" y="475.16" class="st4" width="23.47" height="41.3"/>
				<rect x="545.59" y="475.16" class="st4" width="23.47" height="41.3"/>
				<rect x="544.03" y="516.46" class="st12" width="26.58" height="1.88"/>
				<rect x="544.03" y="473.28" class="st12" width="26.58" height="1.88"/>
				<rect x="544.03" y="494.88" class="st12" width="26.58" height="1.87"/>
				<rect x="544.03" y="475.16" class="st12" width="1.88" height="41.3"/>
				<rect x="556.38" y="475.16" class="st12" width="1.88" height="41.3"/>
				<rect x="568.73" y="475.16" class="st12" width="1.88" height="41.3"/>
				<rect x="545.59" y="475.16" class="st4" width="23.47" height="41.3"/>
				<rect x="545.59" y="475.16" class="st4" width="23.47" height="41.3"/>
				<rect x="544.03" y="516.46" class="st12" width="26.58" height="1.88"/>
				<rect x="544.03" y="473.28" class="st12" width="26.58" height="1.88"/>
				<rect x="544.03" y="494.88" class="st12" width="26.58" height="1.87"/>
				<rect x="544.03" y="475.16" class="st12" width="1.88" height="41.3"/>
				<rect x="556.38" y="475.16" class="st12" width="1.88" height="41.3"/>
				<rect x="568.73" y="475.16" class="st12" width="1.88" height="41.3"/>
			</g>
			<g>
				<rect x="584.24" y="475.16" class="st4" width="23.47" height="41.3"/>
				<rect x="584.24" y="475.16" class="st4" width="23.47" height="41.3"/>
				<rect x="582.68" y="516.46" class="st12" width="26.58" height="1.88"/>
				<rect x="582.68" y="473.28" class="st12" width="26.58" height="1.88"/>
				<rect x="582.68" y="494.88" class="st12" width="26.58" height="1.87"/>
				<rect x="582.68" y="475.16" class="st12" width="1.88" height="41.3"/>
				<rect x="595.03" y="475.16" class="st12" width="1.88" height="41.3"/>
				<rect x="607.38" y="475.16" class="st12" width="1.88" height="41.3"/>
				<rect x="584.24" y="475.16" class="st4" width="23.47" height="41.3"/>
				<rect x="584.24" y="475.16" class="st4" width="23.47" height="41.3"/>
				<rect x="582.68" y="516.46" class="st12" width="26.58" height="1.88"/>
				<rect x="582.68" y="473.28" class="st12" width="26.58" height="1.88"/>
				<rect x="582.68" y="494.88" class="st12" width="26.58" height="1.87"/>
				<rect x="582.68" y="475.16" class="st12" width="1.88" height="41.3"/>
				<rect x="595.03" y="475.16" class="st12" width="1.88" height="41.3"/>
				<rect x="607.38" y="475.16" class="st12" width="1.88" height="41.3"/>
			</g>
			<g>
				<rect x="622.89" y="475.16" class="st4" width="23.47" height="41.3"/>
				<rect x="622.89" y="475.16" class="st4" width="23.47" height="41.3"/>
				<rect x="621.33" y="516.46" class="st12" width="26.58" height="1.88"/>
				<rect x="621.33" y="473.28" class="st12" width="26.58" height="1.88"/>
				<rect x="621.33" y="494.88" class="st12" width="26.58" height="1.87"/>
				<rect x="621.33" y="475.16" class="st12" width="1.88" height="41.3"/>
				<rect x="633.68" y="475.16" class="st12" width="1.88" height="41.3"/>
				<rect x="646.03" y="475.16" class="st12" width="1.88" height="41.3"/>
				<rect x="622.89" y="475.16" class="st4" width="23.47" height="41.3"/>
				<rect x="622.89" y="475.16" class="st4" width="23.47" height="41.3"/>
				<rect x="621.33" y="516.46" class="st12" width="26.58" height="1.88"/>
				<rect x="621.33" y="473.28" class="st12" width="26.58" height="1.88"/>
				<rect x="621.33" y="494.88" class="st12" width="26.58" height="1.87"/>
				<rect x="621.33" y="475.16" class="st12" width="1.88" height="41.3"/>
				<rect x="633.68" y="475.16" class="st12" width="1.88" height="41.3"/>
				<rect x="646.03" y="475.16" class="st12" width="1.88" height="41.3"/>
			</g>
		</g>
		<g>
			<g>
				<rect x="920.01" y="410.43" class="st4" width="23.47" height="41.3"/>
				<rect x="920.01" y="410.43" class="st4" width="23.47" height="41.3"/>
				<rect x="918.46" y="451.73" class="st12" width="26.58" height="1.88"/>
				<rect x="918.46" y="408.55" class="st12" width="26.58" height="1.88"/>
				<rect x="918.46" y="430.14" class="st12" width="26.58" height="1.87"/>
				<rect x="918.46" y="410.43" class="st12" width="1.88" height="41.3"/>
				<rect x="930.81" y="410.43" class="st12" width="1.88" height="41.3"/>
				<rect x="943.15" y="410.43" class="st12" width="1.88" height="41.3"/>
				<rect x="920.01" y="410.43" class="st4" width="23.47" height="41.3"/>
				<rect x="920.01" y="410.43" class="st4" width="23.47" height="41.3"/>
				<rect x="918.46" y="451.73" class="st12" width="26.58" height="1.88"/>
				<rect x="918.46" y="408.55" class="st12" width="26.58" height="1.88"/>
				<rect x="918.46" y="430.14" class="st12" width="26.58" height="1.87"/>
				<rect x="918.46" y="410.43" class="st12" width="1.88" height="41.3"/>
				<rect x="930.81" y="410.43" class="st12" width="1.88" height="41.3"/>
				<rect x="943.15" y="410.43" class="st12" width="1.88" height="41.3"/>
			</g>
			<g>
				<rect x="958.66" y="410.43" class="st4" width="23.47" height="41.3"/>
				<rect x="958.66" y="410.43" class="st4" width="23.47" height="41.3"/>
				<rect x="957.11" y="451.73" class="st12" width="26.58" height="1.88"/>
				<rect x="957.11" y="408.55" class="st12" width="26.58" height="1.88"/>
				<rect x="957.11" y="430.14" class="st12" width="26.58" height="1.87"/>
				<rect x="957.11" y="410.43" class="st12" width="1.88" height="41.3"/>
				<rect x="969.46" y="410.43" class="st12" width="1.88" height="41.3"/>
				<rect x="981.81" y="410.43" class="st12" width="1.88" height="41.3"/>
				<rect x="958.66" y="410.43" class="st4" width="23.47" height="41.3"/>
				<rect x="958.66" y="410.43" class="st4" width="23.47" height="41.3"/>
				<rect x="957.11" y="451.73" class="st12" width="26.58" height="1.88"/>
				<rect x="957.11" y="408.55" class="st12" width="26.58" height="1.88"/>
				<rect x="957.11" y="430.14" class="st12" width="26.58" height="1.87"/>
				<rect x="957.11" y="410.43" class="st12" width="1.88" height="41.3"/>
				<rect x="969.46" y="410.43" class="st12" width="1.88" height="41.3"/>
				<rect x="981.81" y="410.43" class="st12" width="1.88" height="41.3"/>
			</g>
			<g>
				<rect x="997.31" y="410.43" class="st4" width="23.47" height="41.3"/>
				<rect x="997.31" y="410.43" class="st4" width="23.47" height="41.3"/>
				<rect x="995.76" y="451.73" class="st12" width="26.58" height="1.88"/>
				<rect x="995.76" y="408.55" class="st12" width="26.58" height="1.88"/>
				<rect x="995.76" y="430.14" class="st12" width="26.58" height="1.87"/>
				<rect x="995.76" y="410.43" class="st12" width="1.88" height="41.3"/>
				<rect x="1008.11" y="410.43" class="st12" width="1.88" height="41.3"/>
				<rect x="1020.46" y="410.43" class="st12" width="1.88" height="41.3"/>
				<rect x="997.31" y="410.43" class="st4" width="23.47" height="41.3"/>
				<rect x="997.31" y="410.43" class="st4" width="23.47" height="41.3"/>
				<rect x="995.76" y="451.73" class="st12" width="26.58" height="1.88"/>
				<rect x="995.76" y="408.55" class="st12" width="26.58" height="1.88"/>
				<rect x="995.76" y="430.14" class="st12" width="26.58" height="1.87"/>
				<rect x="995.76" y="410.43" class="st12" width="1.88" height="41.3"/>
				<rect x="1008.11" y="410.43" class="st12" width="1.88" height="41.3"/>
				<rect x="1020.46" y="410.43" class="st12" width="1.88" height="41.3"/>
			</g>
			<g>
				<rect x="1035.96" y="410.43" class="st4" width="23.47" height="41.3"/>
				<rect x="1035.96" y="410.43" class="st4" width="23.47" height="41.3"/>
				<rect x="1034.41" y="451.73" class="st12" width="26.58" height="1.88"/>
				<rect x="1034.41" y="408.55" class="st12" width="26.58" height="1.88"/>
				<rect x="1034.41" y="430.14" class="st12" width="26.58" height="1.87"/>
				<rect x="1034.41" y="410.43" class="st12" width="1.88" height="41.3"/>
				<rect x="1046.76" y="410.43" class="st12" width="1.88" height="41.3"/>
				<rect x="1059.1" y="410.43" class="st12" width="1.88" height="41.3"/>
				<rect x="1035.96" y="410.43" class="st4" width="23.47" height="41.3"/>
				<rect x="1035.96" y="410.43" class="st4" width="23.47" height="41.3"/>
				<rect x="1034.41" y="451.73" class="st12" width="26.58" height="1.88"/>
				<rect x="1034.41" y="408.55" class="st12" width="26.58" height="1.88"/>
				<rect x="1034.41" y="430.14" class="st12" width="26.58" height="1.87"/>
				<rect x="1034.41" y="410.43" class="st12" width="1.88" height="41.3"/>
				<rect x="1046.76" y="410.43" class="st12" width="1.88" height="41.3"/>
				<rect x="1059.1" y="410.43" class="st12" width="1.88" height="41.3"/>
			</g>
			<g>
				<rect x="920.01" y="475.16" class="st4" width="23.47" height="41.3"/>
				<rect x="920.01" y="475.16" class="st4" width="23.47" height="41.3"/>
				<rect x="918.46" y="516.46" class="st12" width="26.58" height="1.88"/>
				<rect x="918.46" y="473.28" class="st12" width="26.58" height="1.88"/>
				<rect x="918.46" y="494.88" class="st12" width="26.58" height="1.87"/>
				<rect x="918.46" y="475.16" class="st12" width="1.88" height="41.3"/>
				<rect x="930.81" y="475.16" class="st12" width="1.88" height="41.3"/>
				<rect x="943.15" y="475.16" class="st12" width="1.88" height="41.3"/>
				<rect x="920.01" y="475.16" class="st4" width="23.47" height="41.3"/>
				<rect x="920.01" y="475.16" class="st4" width="23.47" height="41.3"/>
				<rect x="918.46" y="516.46" class="st12" width="26.58" height="1.88"/>
				<rect x="918.46" y="473.28" class="st12" width="26.58" height="1.88"/>
				<rect x="918.46" y="494.88" class="st12" width="26.58" height="1.87"/>
				<rect x="918.46" y="475.16" class="st12" width="1.88" height="41.3"/>
				<rect x="930.81" y="475.16" class="st12" width="1.88" height="41.3"/>
				<rect x="943.15" y="475.16" class="st12" width="1.88" height="41.3"/>
			</g>
			<g>
				<rect x="958.66" y="475.16" class="st4" width="23.47" height="41.3"/>
				<rect x="958.66" y="475.16" class="st4" width="23.47" height="41.3"/>
				<rect x="957.11" y="516.46" class="st12" width="26.58" height="1.88"/>
				<rect x="957.11" y="473.28" class="st12" width="26.58" height="1.88"/>
				<rect x="957.11" y="494.88" class="st12" width="26.58" height="1.87"/>
				<rect x="957.11" y="475.16" class="st12" width="1.88" height="41.3"/>
				<rect x="969.46" y="475.16" class="st12" width="1.88" height="41.3"/>
				<rect x="981.81" y="475.16" class="st12" width="1.88" height="41.3"/>
				<rect x="958.66" y="475.16" class="st4" width="23.47" height="41.3"/>
				<rect x="958.66" y="475.16" class="st4" width="23.47" height="41.3"/>
				<rect x="957.11" y="516.46" class="st12" width="26.58" height="1.88"/>
				<rect x="957.11" y="473.28" class="st12" width="26.58" height="1.88"/>
				<rect x="957.11" y="494.88" class="st12" width="26.58" height="1.87"/>
				<rect x="957.11" y="475.16" class="st12" width="1.88" height="41.3"/>
				<rect x="969.46" y="475.16" class="st12" width="1.88" height="41.3"/>
				<rect x="981.81" y="475.16" class="st12" width="1.88" height="41.3"/>
			</g>
			<g>
				<rect x="997.31" y="475.16" class="st4" width="23.47" height="41.3"/>
				<rect x="997.31" y="475.16" class="st4" width="23.47" height="41.3"/>
				<rect x="995.76" y="516.46" class="st12" width="26.58" height="1.88"/>
				<rect x="995.76" y="473.28" class="st12" width="26.58" height="1.88"/>
				<rect x="995.76" y="494.88" class="st12" width="26.58" height="1.87"/>
				<rect x="995.76" y="475.16" class="st12" width="1.88" height="41.3"/>
				<rect x="1008.11" y="475.16" class="st12" width="1.88" height="41.3"/>
				<rect x="1020.46" y="475.16" class="st12" width="1.88" height="41.3"/>
				<rect x="997.31" y="475.16" class="st4" width="23.47" height="41.3"/>
				<rect x="997.31" y="475.16" class="st4" width="23.47" height="41.3"/>
				<rect x="995.76" y="516.46" class="st12" width="26.58" height="1.88"/>
				<rect x="995.76" y="473.28" class="st12" width="26.58" height="1.88"/>
				<rect x="995.76" y="494.88" class="st12" width="26.58" height="1.87"/>
				<rect x="995.76" y="475.16" class="st12" width="1.88" height="41.3"/>
				<rect x="1008.11" y="475.16" class="st12" width="1.88" height="41.3"/>
				<rect x="1020.46" y="475.16" class="st12" width="1.88" height="41.3"/>
			</g>
			<g>
				<rect x="1035.96" y="475.16" class="st4" width="23.47" height="41.3"/>
				<rect x="1035.96" y="475.16" class="st4" width="23.47" height="41.3"/>
				<rect x="1034.41" y="516.46" class="st12" width="26.58" height="1.88"/>
				<rect x="1034.41" y="473.28" class="st12" width="26.58" height="1.88"/>
				<rect x="1034.41" y="494.88" class="st12" width="26.58" height="1.87"/>
				<rect x="1034.41" y="475.16" class="st12" width="1.88" height="41.3"/>
				<rect x="1046.76" y="475.16" class="st12" width="1.88" height="41.3"/>
				<rect x="1059.1" y="475.16" class="st12" width="1.88" height="41.3"/>
				<rect x="1035.96" y="475.16" class="st4" width="23.47" height="41.3"/>
				<rect x="1035.96" y="475.16" class="st4" width="23.47" height="41.3"/>
				<rect x="1034.41" y="516.46" class="st12" width="26.58" height="1.88"/>
				<rect x="1034.41" y="473.28" class="st12" width="26.58" height="1.88"/>
				<rect x="1034.41" y="494.88" class="st12" width="26.58" height="1.87"/>
				<rect x="1034.41" y="475.16" class="st12" width="1.88" height="41.3"/>
				<rect x="1046.76" y="475.16" class="st12" width="1.88" height="41.3"/>
				<rect x="1059.1" y="475.16" class="st12" width="1.88" height="41.3"/>
			</g>
		</g>
		<polygon class="st13" points="784.6,181.01 670.86,276.12 670.86,564.58 895.89,564.58 895.89,276.12 		"/>
		<g>
			<path class="st14" d="M754.26,245.71c0-16.08,13.03-29.11,29.11-29.11c16.08,0,29.11,13.03,29.11,29.11
				c0,16.08-13.03,29.11-29.11,29.11C767.29,274.81,754.26,261.78,754.26,245.71z"/>
			<path class="st15" d="M757.62,245.71c0-14.22,11.53-25.75,25.75-25.75c14.22,0,25.75,11.53,25.75,25.75
				c0,14.22-11.53,25.75-25.75,25.75C769.15,271.45,757.62,259.93,757.62,245.71z"/>
			<path class="st14" d="M780.76,245.71c0-1.44,1.17-2.61,2.61-2.61c1.44,0,2.61,1.17,2.61,2.61c0,1.44-1.17,2.61-2.61,2.61
				C781.93,248.32,780.76,247.15,780.76,245.71z"/>
			<polygon class="st14" points="782.23,245.71 784.6,245.71 783.35,221.26 			"/>
			<polygon class="st14" points="784.6,246.32 782.92,244.64 770.28,258.66 			"/>
		</g>
		<g>
			<g>
				<rect x="713.71" y="310.53" class="st4" width="23.47" height="41.3"/>
				<rect x="713.71" y="310.53" class="st4" width="23.47" height="41.3"/>
				<rect x="712.15" y="351.83" class="st12" width="26.58" height="1.88"/>
				<rect x="712.15" y="308.65" class="st12" width="26.58" height="1.88"/>
				<rect x="712.15" y="330.25" class="st12" width="26.58" height="1.88"/>
				<rect x="712.15" y="310.53" class="st12" width="1.88" height="41.3"/>
				<rect x="724.5" y="310.53" class="st12" width="1.88" height="41.3"/>
				<rect x="736.85" y="310.53" class="st12" width="1.88" height="41.3"/>
				<rect x="713.71" y="310.53" class="st4" width="23.47" height="41.3"/>
				<rect x="713.71" y="310.53" class="st4" width="23.47" height="41.3"/>
				<rect x="712.15" y="351.83" class="st12" width="26.58" height="1.88"/>
				<rect x="712.15" y="308.65" class="st12" width="26.58" height="1.88"/>
				<rect x="712.15" y="330.25" class="st12" width="26.58" height="1.88"/>
				<rect x="712.15" y="310.53" class="st12" width="1.88" height="41.3"/>
				<rect x="724.5" y="310.53" class="st12" width="1.88" height="41.3"/>
				<rect x="736.85" y="310.53" class="st12" width="1.88" height="41.3"/>
			</g>
			<g>
				<rect x="752.36" y="310.53" class="st4" width="23.47" height="41.3"/>
				<rect x="752.36" y="310.53" class="st4" width="23.47" height="41.3"/>
				<rect x="750.8" y="351.83" class="st12" width="26.58" height="1.88"/>
				<rect x="750.8" y="308.65" class="st12" width="26.58" height="1.88"/>
				<rect x="750.8" y="330.25" class="st12" width="26.58" height="1.88"/>
				<rect x="750.8" y="310.53" class="st12" width="1.88" height="41.3"/>
				<rect x="763.15" y="310.53" class="st12" width="1.88" height="41.3"/>
				<rect x="775.5" y="310.53" class="st12" width="1.88" height="41.3"/>
				<rect x="752.36" y="310.53" class="st4" width="23.47" height="41.3"/>
				<rect x="752.36" y="310.53" class="st4" width="23.47" height="41.3"/>
				<rect x="750.8" y="351.83" class="st12" width="26.58" height="1.88"/>
				<rect x="750.8" y="308.65" class="st12" width="26.58" height="1.88"/>
				<rect x="750.8" y="330.25" class="st12" width="26.58" height="1.88"/>
				<rect x="750.8" y="310.53" class="st12" width="1.88" height="41.3"/>
				<rect x="763.15" y="310.53" class="st12" width="1.88" height="41.3"/>
				<rect x="775.5" y="310.53" class="st12" width="1.88" height="41.3"/>
			</g>
			<g>
				<rect x="791.01" y="310.53" class="st4" width="23.47" height="41.3"/>
				<rect x="791.01" y="310.53" class="st4" width="23.47" height="41.3"/>
				<rect x="789.45" y="351.83" class="st12" width="26.58" height="1.88"/>
				<rect x="789.45" y="308.65" class="st12" width="26.58" height="1.88"/>
				<rect x="789.45" y="330.25" class="st12" width="26.58" height="1.88"/>
				<rect x="789.45" y="310.53" class="st12" width="1.88" height="41.3"/>
				<rect x="801.8" y="310.53" class="st12" width="1.88" height="41.3"/>
				<rect x="814.15" y="310.53" class="st12" width="1.88" height="41.3"/>
				<rect x="791.01" y="310.53" class="st4" width="23.47" height="41.3"/>
				<rect x="791.01" y="310.53" class="st4" width="23.47" height="41.3"/>
				<rect x="789.45" y="351.83" class="st12" width="26.58" height="1.88"/>
				<rect x="789.45" y="308.65" class="st12" width="26.58" height="1.88"/>
				<rect x="789.45" y="330.25" class="st12" width="26.58" height="1.88"/>
				<rect x="789.45" y="310.53" class="st12" width="1.88" height="41.3"/>
				<rect x="801.8" y="310.53" class="st12" width="1.88" height="41.3"/>
				<rect x="814.15" y="310.53" class="st12" width="1.88" height="41.3"/>
			</g>
			<g>
				<rect x="829.66" y="310.53" class="st4" width="23.47" height="41.3"/>
				<rect x="829.66" y="310.53" class="st4" width="23.47" height="41.3"/>
				<rect x="828.1" y="351.83" class="st12" width="26.58" height="1.88"/>
				<rect x="828.1" y="308.65" class="st12" width="26.58" height="1.88"/>
				<rect x="828.1" y="330.25" class="st12" width="26.58" height="1.88"/>
				<rect x="828.1" y="310.53" class="st12" width="1.88" height="41.3"/>
				<rect x="840.45" y="310.53" class="st12" width="1.88" height="41.3"/>
				<rect x="852.8" y="310.53" class="st12" width="1.88" height="41.3"/>
				<rect x="829.66" y="310.53" class="st4" width="23.47" height="41.3"/>
				<rect x="829.66" y="310.53" class="st4" width="23.47" height="41.3"/>
				<rect x="828.1" y="351.83" class="st12" width="26.58" height="1.88"/>
				<rect x="828.1" y="308.65" class="st12" width="26.58" height="1.88"/>
				<rect x="828.1" y="330.25" class="st12" width="26.58" height="1.88"/>
				<rect x="828.1" y="310.53" class="st12" width="1.88" height="41.3"/>
				<rect x="840.45" y="310.53" class="st12" width="1.88" height="41.3"/>
				<rect x="852.8" y="310.53" class="st12" width="1.88" height="41.3"/>
			</g>
			<g>
				<rect x="713.71" y="375.27" class="st4" width="23.47" height="41.3"/>
				<rect x="713.71" y="375.27" class="st4" width="23.47" height="41.3"/>
				<rect x="712.15" y="416.57" class="st12" width="26.58" height="1.88"/>
				<rect x="712.15" y="373.39" class="st12" width="26.58" height="1.88"/>
				<rect x="712.15" y="394.98" class="st12" width="26.58" height="1.88"/>
				<rect x="712.15" y="375.27" class="st12" width="1.88" height="41.3"/>
				<rect x="724.5" y="375.27" class="st12" width="1.88" height="41.3"/>
				<rect x="736.85" y="375.27" class="st12" width="1.88" height="41.3"/>
				<rect x="713.71" y="375.27" class="st4" width="23.47" height="41.3"/>
				<rect x="713.71" y="375.27" class="st4" width="23.47" height="41.3"/>
				<rect x="712.15" y="416.57" class="st12" width="26.58" height="1.88"/>
				<rect x="712.15" y="373.39" class="st12" width="26.58" height="1.88"/>
				<rect x="712.15" y="394.98" class="st12" width="26.58" height="1.88"/>
				<rect x="712.15" y="375.27" class="st12" width="1.88" height="41.3"/>
				<rect x="724.5" y="375.27" class="st12" width="1.88" height="41.3"/>
				<rect x="736.85" y="375.27" class="st12" width="1.88" height="41.3"/>
			</g>
			<g>
				<rect x="752.36" y="375.27" class="st4" width="23.47" height="41.3"/>
				<rect x="752.36" y="375.27" class="st4" width="23.47" height="41.3"/>
				<rect x="750.8" y="416.57" class="st12" width="26.58" height="1.88"/>
				<rect x="750.8" y="373.39" class="st12" width="26.58" height="1.88"/>
				<rect x="750.8" y="394.98" class="st12" width="26.58" height="1.88"/>
				<rect x="750.8" y="375.27" class="st12" width="1.88" height="41.3"/>
				<rect x="763.15" y="375.27" class="st12" width="1.88" height="41.3"/>
				<rect x="775.5" y="375.27" class="st12" width="1.88" height="41.3"/>
				<rect x="752.36" y="375.27" class="st4" width="23.47" height="41.3"/>
				<rect x="752.36" y="375.27" class="st4" width="23.47" height="41.3"/>
				<rect x="750.8" y="416.57" class="st12" width="26.58" height="1.88"/>
				<rect x="750.8" y="373.39" class="st12" width="26.58" height="1.88"/>
				<rect x="750.8" y="394.98" class="st12" width="26.58" height="1.88"/>
				<rect x="750.8" y="375.27" class="st12" width="1.88" height="41.3"/>
				<rect x="763.15" y="375.27" class="st12" width="1.88" height="41.3"/>
				<rect x="775.5" y="375.27" class="st12" width="1.88" height="41.3"/>
			</g>
			<g>
				<rect x="791.01" y="375.27" class="st4" width="23.47" height="41.3"/>
				<rect x="791.01" y="375.27" class="st4" width="23.47" height="41.3"/>
				<rect x="789.45" y="416.57" class="st12" width="26.58" height="1.88"/>
				<rect x="789.45" y="373.39" class="st12" width="26.58" height="1.88"/>
				<rect x="789.45" y="394.98" class="st12" width="26.58" height="1.88"/>
				<rect x="789.45" y="375.27" class="st12" width="1.88" height="41.3"/>
				<rect x="801.8" y="375.27" class="st12" width="1.88" height="41.3"/>
				<rect x="814.15" y="375.27" class="st12" width="1.88" height="41.3"/>
				<rect x="791.01" y="375.27" class="st4" width="23.47" height="41.3"/>
				<rect x="791.01" y="375.27" class="st4" width="23.47" height="41.3"/>
				<rect x="789.45" y="416.57" class="st12" width="26.58" height="1.88"/>
				<rect x="789.45" y="373.39" class="st12" width="26.58" height="1.88"/>
				<rect x="789.45" y="394.98" class="st12" width="26.58" height="1.88"/>
				<rect x="789.45" y="375.27" class="st12" width="1.88" height="41.3"/>
				<rect x="801.8" y="375.27" class="st12" width="1.88" height="41.3"/>
				<rect x="814.15" y="375.27" class="st12" width="1.88" height="41.3"/>
			</g>
			<g>
				<rect x="829.66" y="375.27" class="st4" width="23.47" height="41.3"/>
				<rect x="829.66" y="375.27" class="st4" width="23.47" height="41.3"/>
				<rect x="828.1" y="416.57" class="st12" width="26.58" height="1.88"/>
				<rect x="828.1" y="373.39" class="st12" width="26.58" height="1.88"/>
				<rect x="828.1" y="394.98" class="st12" width="26.58" height="1.88"/>
				<rect x="828.1" y="375.27" class="st12" width="1.88" height="41.3"/>
				<rect x="840.45" y="375.27" class="st12" width="1.88" height="41.3"/>
				<rect x="852.8" y="375.27" class="st12" width="1.88" height="41.3"/>
				<rect x="829.66" y="375.27" class="st4" width="23.47" height="41.3"/>
				<rect x="829.66" y="375.27" class="st4" width="23.47" height="41.3"/>
				<rect x="828.1" y="416.57" class="st12" width="26.58" height="1.88"/>
				<rect x="828.1" y="373.39" class="st12" width="26.58" height="1.88"/>
				<rect x="828.1" y="394.98" class="st12" width="26.58" height="1.88"/>
				<rect x="828.1" y="375.27" class="st12" width="1.88" height="41.3"/>
				<rect x="840.45" y="375.27" class="st12" width="1.88" height="41.3"/>
				<rect x="852.8" y="375.27" class="st12" width="1.88" height="41.3"/>
			</g>
		</g>
		<g>
			<path class="st6" d="M823.18,502.94c0-17.21-14.44-31.15-32.25-31.15h-9.85c-17.81,0-32.25,13.95-32.25,31.15v61.36h74.35V502.94
				z"/>
			<g>
				<g>
					<rect x="681.47" y="460.63" class="st16" width="30.15" height="73.54"/>
					<rect x="676.04" y="534.18" class="st17" width="40.53" height="31.04"/>
					<rect x="676.04" y="448.21" class="st17" width="40.78" height="15.52"/>
				</g>
				<g>
					<rect x="860.3" y="460.63" class="st16" width="30.16" height="73.54"/>
					<rect x="855.35" y="534.18" class="st17" width="40.54" height="31.04"/>
					<rect x="855.11" y="448.21" class="st17" width="40.53" height="15.52"/>
					<polygon class="st17" points="791.21,440.45 780.72,440.45 676.04,440.45 676.04,455.98 780.72,455.98 791.21,455.98 
						895.89,455.98 895.89,440.45 					"/>
				</g>
				<polygon class="st11" points="855.11,457.77 716.82,459.2 716.82,455.98 855.11,455.98 				"/>
			</g>
		</g>
		<polygon class="st8" points="784.6,181.01 653.47,290.96 635.9,290.96 784.6,165.86 931,290.96 913.35,290.96 		"/>
		<g>
			<path class="st18" d="M683.18,547.54c-3.52,0.54-6.59,2.43-8.65,5.15c-1.39-0.89-3.04-1.41-4.82-1.41
				c-3.59,0-6.67,2.11-8.11,5.16c-0.58-0.12-1.17-0.18-1.79-0.18c-3.06,0-5.77,1.54-7.38,3.89c-1.33-0.78-2.88-1.24-4.53-1.24
				c-1.93,0-3.71,0.62-5.17,1.65c-1.2-1.08-2.68-1.85-4.33-2.16c0.02-0.26,0.04-0.51,0.04-0.77c0-5.66-4.59-10.25-10.25-10.25
				c-4.75,0-8.73,3.23-9.9,7.62c-0.12,0-0.23-0.02-0.35-0.02c-2.44,0-4.67,0.85-6.43,2.27c-0.65-0.52-1.36-0.96-2.13-1.32
				c-1.39-5.61-6.44-9.77-12.48-9.77c-3.71,0-7.04,1.58-9.39,4.09c-1.65-0.77-3.49-1.21-5.43-1.21c-7.11,0-12.87,5.76-12.87,12.87
				c0,0.18,0.02,0.36,0.03,0.53c-0.86-0.25-1.77-0.42-2.7-0.49c-1.81-2.35-4.4-4.06-7.39-4.73c-1.36-5.65-6.43-9.86-12.5-9.86
				c-6.3,0-11.54,4.53-12.65,10.51c-1.23-0.71-2.61-1.19-4.09-1.37c-1.7-3.7-5.43-6.27-9.77-6.27c-5.7,0-10.34,4.43-10.72,10.03
				c-0.21,0.01-0.42,0.03-0.63,0.06c-2.25-2.03-5.23-3.27-8.5-3.27c-0.94,0-1.85,0.11-2.73,0.3c-2.33-2.96-5.93-4.87-9.99-4.87
				c-7.03,0-12.72,5.7-12.72,12.72c0,7.03,5.7,12.72,12.72,12.72c0.94,0,1.85-0.11,2.73-0.3c2.33,2.96,5.94,4.87,9.99,4.87
				c2.16,0,4.19-0.54,5.97-1.49c1.2,0.46,2.51,0.73,3.88,0.73c4.84,0,8.94-3.2,10.28-7.61c1.97,2.32,4.91,3.8,8.19,3.8
				c1.12,0,2.2-0.17,3.22-0.49c1.94,1.91,4.6,3.09,7.53,3.09c2.68,0,5.12-0.98,7-2.6c2.17,2.65,5.38,4.4,9,4.67
				c2.35,3.06,6.04,5.05,10.2,5.05c7.11,0,12.87-5.76,12.87-12.87c0-0.18-0.02-0.36-0.03-0.54c1.16,0.34,2.39,0.54,3.66,0.54
				c3.71,0,7.04-1.58,9.39-4.09c1.65,0.77,3.49,1.21,5.43,1.21c0.14,0,0.27-0.02,0.4-0.02c1.88,2.19,4.66,3.58,7.78,3.58
				c2.44,0,4.67-0.85,6.43-2.28c1.76,1.42,4,2.28,6.43,2.28c4.68,0,8.62-3.14,9.85-7.43c0.43,4.55,4.26,8.11,8.92,8.11
				c1.93,0,3.71-0.62,5.17-1.65c1.59,1.44,3.7,2.33,6.02,2.33c3.07,0,5.77-1.54,7.38-3.89c1.33,0.78,2.88,1.24,4.53,1.24
				c3.59,0,6.67-2.11,8.11-5.15c0.58,0.12,1.17,0.18,1.79,0.18c1.55,0,3.01-0.39,4.28-1.09c2.32,3.54,6.28,5.9,10.79,6.04
				c1.86,1.97,4.48,3.2,7.4,3.2c2.48,0,4.75-0.88,6.51-2.35c0.88,0.25,1.8,0.39,2.75,0.39c5.62,0,10.18-4.55,10.18-10.17
				c0-5.62-4.56-10.18-10.18-10.18c-1.04,0-2.05,0.16-2.99,0.45c-0.34-0.11-0.7-0.19-1.05-0.26c-1.84-4.04-5.63-7-10.17-7.69"/>
			<path class="st19" d="M683.18,556.62c-3.52,0.42-6.59,1.88-8.65,3.99c-1.39-0.69-3.04-1.09-4.82-1.09
				c-3.59,0-6.67,1.63-8.11,3.99c-0.58-0.09-1.17-0.14-1.79-0.14c-3.06,0-5.77,1.19-7.38,3c-1.33-0.6-2.88-0.96-4.53-0.96
				c-1.93,0-3.71,0.48-5.17,1.28c-1.2-0.84-2.68-1.43-4.33-1.68c0.02-0.2,0.04-0.39,0.04-0.59c0-4.38-4.59-7.93-10.25-7.93
				c-4.75,0-8.73,2.5-9.9,5.89c-0.12,0-0.23-0.01-0.35-0.01c-2.44,0-4.67,0.66-6.43,1.76c-0.65-0.4-1.36-0.75-2.13-1.02
				c-1.39-4.34-6.44-7.56-12.48-7.56c-3.71,0-7.04,1.22-9.39,3.16c-1.65-0.6-3.49-0.94-5.43-0.94c-7.11,0-12.87,4.46-12.87,9.96
				c0,0.14,0.02,0.28,0.03,0.41c-0.86-0.2-1.77-0.32-2.7-0.38c-1.81-1.82-4.4-3.14-7.39-3.66c-1.36-4.37-6.43-7.63-12.5-7.63
				c-6.3,0-11.54,3.51-12.65,8.14c-1.23-0.55-2.61-0.92-4.09-1.06c-1.7-2.86-5.43-4.85-9.77-4.85c-5.7,0-10.34,3.43-10.72,7.76
				c-0.21,0.01-0.42,0.02-0.63,0.04c-2.25-1.57-5.23-2.53-8.5-2.53c-0.94,0-1.85,0.08-2.73,0.23c-2.33-2.29-5.93-3.76-9.99-3.76
				c-7.03,0-12.72,4.41-12.72,9.84s5.7,9.84,12.72,9.84c0.94,0,1.85-0.09,2.73-0.23c2.33,2.29,5.94,3.76,9.99,3.76
				c2.16,0,4.19-0.42,5.97-1.15c1.2,0.36,2.51,0.57,3.88,0.57c4.84,0,8.94-2.48,10.28-5.89c1.97,1.8,4.91,2.94,8.19,2.94
				c1.12,0,2.2-0.13,3.22-0.38c1.94,1.48,4.6,2.39,7.53,2.39c2.68,0,5.12-0.76,7-2.01c2.17,2.05,5.38,3.41,9,3.62
				c2.35,2.37,6.04,3.91,10.2,3.91c7.11,0,12.87-4.46,12.87-9.96c0-0.14-0.02-0.28-0.03-0.42c1.16,0.27,2.39,0.42,3.66,0.42
				c3.71,0,7.04-1.22,9.39-3.16c1.65,0.59,3.49,0.94,5.43,0.94c0.14,0,0.27-0.01,0.4-0.02c1.88,1.7,4.66,2.77,7.78,2.77
				c2.44,0,4.67-0.66,6.43-1.76c1.76,1.1,4,1.76,6.43,1.76c4.68,0,8.62-2.43,9.85-5.75c0.43,3.52,4.26,6.28,8.92,6.28
				c1.93,0,3.71-0.48,5.17-1.28c1.59,1.12,3.7,1.8,6.02,1.8c3.07,0,5.77-1.19,7.38-3c1.33,0.6,2.88,0.96,4.53,0.96
				c3.59,0,6.67-1.63,8.11-3.99c0.58,0.09,1.17,0.14,1.79,0.14c1.55,0,3.01-0.3,4.28-0.84c2.32,2.74,6.28,4.57,10.79,4.67
				c1.86,1.52,4.48,2.48,7.4,2.48c2.48,0,4.75-0.69,6.51-1.82c0.88,0.19,1.8,0.3,2.75,0.3c5.62,0,10.18-3.53,10.18-7.88
				c0-4.35-4.56-7.87-10.18-7.87c-1.04,0-2.05,0.12-2.99,0.35c-0.34-0.08-0.7-0.15-1.05-0.2c-1.84-3.13-5.63-5.42-10.17-5.95"/>
			<rect x="476.34" y="564.35" class="st8" width="240.23" height="27.17"/>
		</g>
		<g>
			<path class="st18" d="M1064.25,547.54c-3.52,0.54-6.59,2.43-8.65,5.15c-1.39-0.89-3.04-1.41-4.82-1.41
				c-3.59,0-6.67,2.11-8.11,5.16c-0.58-0.12-1.18-0.18-1.79-0.18c-3.06,0-5.77,1.54-7.38,3.89c-1.33-0.78-2.88-1.24-4.53-1.24
				c-1.93,0-3.71,0.62-5.18,1.65c-1.19-1.08-2.68-1.85-4.32-2.16c0.02-0.26,0.04-0.51,0.04-0.77c0-5.66-4.59-10.25-10.25-10.25
				c-4.75,0-8.73,3.23-9.89,7.62c-0.12,0-0.23-0.02-0.35-0.02c-2.44,0-4.67,0.85-6.43,2.27c-0.65-0.52-1.37-0.96-2.13-1.32
				c-1.39-5.61-6.44-9.77-12.48-9.77c-3.71,0-7.04,1.58-9.39,4.09c-1.65-0.77-3.48-1.21-5.43-1.21c-7.11,0-12.87,5.76-12.87,12.87
				c0,0.18,0.02,0.36,0.03,0.53c-0.87-0.25-1.77-0.42-2.7-0.49c-1.81-2.35-4.4-4.06-7.39-4.73c-1.36-5.65-6.43-9.86-12.5-9.86
				c-6.3,0-11.54,4.53-12.65,10.51c-1.23-0.71-2.61-1.19-4.09-1.37c-1.7-3.7-5.43-6.27-9.77-6.27c-5.7,0-10.34,4.43-10.72,10.03
				c-0.21,0.01-0.42,0.03-0.62,0.06c-2.25-2.03-5.23-3.27-8.5-3.27c-0.94,0-1.85,0.11-2.73,0.3c-2.33-2.96-5.94-4.87-9.99-4.87
				c-7.03,0-12.72,5.7-12.72,12.72c0,7.03,5.7,12.72,12.72,12.72c0.94,0,1.85-0.11,2.73-0.3c2.33,2.96,5.94,4.87,9.99,4.87
				c2.16,0,4.19-0.54,5.97-1.49c1.2,0.46,2.51,0.73,3.88,0.73c4.84,0,8.94-3.2,10.28-7.61c1.97,2.32,4.91,3.8,8.19,3.8
				c1.12,0,2.2-0.17,3.22-0.49c1.94,1.91,4.6,3.09,7.54,3.09c2.68,0,5.12-0.98,7-2.6c2.17,2.65,5.37,4.4,9,4.67
				c2.35,3.06,6.04,5.05,10.21,5.05c7.11,0,12.87-5.76,12.87-12.87c0-0.18-0.02-0.36-0.03-0.54c1.16,0.34,2.39,0.54,3.66,0.54
				c3.71,0,7.05-1.58,9.39-4.09c1.65,0.77,3.48,1.21,5.43,1.21c0.13,0,0.27-0.02,0.4-0.02c1.88,2.19,4.66,3.58,7.78,3.58
				c2.44,0,4.67-0.85,6.43-2.28c1.76,1.42,3.99,2.28,6.43,2.28c4.68,0,8.62-3.14,9.85-7.43c0.43,4.55,4.26,8.11,8.92,8.11
				c1.93,0,3.71-0.62,5.18-1.65c1.59,1.44,3.7,2.33,6.02,2.33c3.06,0,5.77-1.54,7.38-3.89c1.33,0.78,2.87,1.24,4.53,1.24
				c3.59,0,6.67-2.11,8.11-5.15c0.58,0.12,1.18,0.18,1.79,0.18c1.55,0,3.01-0.39,4.28-1.09c2.32,3.54,6.28,5.9,10.79,6.04
				c1.86,1.97,4.48,3.2,7.4,3.2c2.48,0,4.75-0.88,6.51-2.35c0.88,0.25,1.8,0.39,2.75,0.39c5.62,0,10.18-4.55,10.18-10.17
				c0-5.62-4.55-10.18-10.18-10.18c-1.04,0-2.05,0.16-2.99,0.45c-0.34-0.11-0.7-0.19-1.05-0.26c-1.84-4.04-5.63-7-10.17-7.69"/>
			<path class="st19" d="M1064.25,556.62c-3.52,0.42-6.59,1.88-8.65,3.99c-1.39-0.69-3.04-1.09-4.82-1.09
				c-3.59,0-6.67,1.63-8.11,3.99c-0.58-0.09-1.18-0.14-1.79-0.14c-3.06,0-5.77,1.19-7.38,3c-1.33-0.6-2.88-0.96-4.53-0.96
				c-1.93,0-3.71,0.48-5.18,1.28c-1.19-0.84-2.68-1.43-4.32-1.68c0.02-0.2,0.04-0.39,0.04-0.59c0-4.38-4.59-7.93-10.25-7.93
				c-4.75,0-8.73,2.5-9.89,5.89c-0.12,0-0.23-0.01-0.35-0.01c-2.44,0-4.67,0.66-6.43,1.76c-0.65-0.4-1.37-0.75-2.13-1.02
				c-1.39-4.34-6.44-7.56-12.48-7.56c-3.71,0-7.04,1.22-9.39,3.16c-1.65-0.6-3.48-0.94-5.43-0.94c-7.11,0-12.87,4.46-12.87,9.96
				c0,0.14,0.02,0.28,0.03,0.41c-0.87-0.2-1.77-0.32-2.7-0.38c-1.81-1.82-4.4-3.14-7.39-3.66c-1.36-4.37-6.43-7.63-12.5-7.63
				c-6.3,0-11.54,3.51-12.65,8.14c-1.23-0.55-2.61-0.92-4.09-1.06c-1.7-2.86-5.43-4.85-9.77-4.85c-5.7,0-10.34,3.43-10.72,7.76
				c-0.21,0.01-0.42,0.02-0.62,0.04c-2.25-1.57-5.23-2.53-8.5-2.53c-0.94,0-1.85,0.08-2.73,0.23c-2.33-2.29-5.94-3.76-9.99-3.76
				c-7.03,0-12.72,4.41-12.72,9.84s5.7,9.84,12.72,9.84c0.94,0,1.85-0.09,2.73-0.23c2.33,2.29,5.94,3.76,9.99,3.76
				c2.16,0,4.19-0.42,5.97-1.15c1.2,0.36,2.51,0.57,3.88,0.57c4.84,0,8.94-2.48,10.28-5.89c1.97,1.8,4.91,2.94,8.19,2.94
				c1.12,0,2.2-0.13,3.22-0.38c1.94,1.48,4.6,2.39,7.54,2.39c2.68,0,5.12-0.76,7-2.01c2.17,2.05,5.37,3.41,9,3.62
				c2.35,2.37,6.04,3.91,10.21,3.91c7.11,0,12.87-4.46,12.87-9.96c0-0.14-0.02-0.28-0.03-0.42c1.16,0.27,2.39,0.42,3.66,0.42
				c3.71,0,7.05-1.22,9.39-3.16c1.65,0.59,3.48,0.94,5.43,0.94c0.13,0,0.27-0.01,0.4-0.02c1.88,1.7,4.66,2.77,7.78,2.77
				c2.44,0,4.67-0.66,6.43-1.76c1.76,1.1,3.99,1.76,6.43,1.76c4.68,0,8.62-2.43,9.85-5.75c0.43,3.52,4.26,6.28,8.92,6.28
				c1.93,0,3.71-0.48,5.18-1.28c1.59,1.12,3.7,1.8,6.02,1.8c3.06,0,5.77-1.19,7.38-3c1.33,0.6,2.87,0.96,4.53,0.96
				c3.59,0,6.67-1.63,8.11-3.99c0.58,0.09,1.18,0.14,1.79,0.14c1.55,0,3.01-0.3,4.28-0.84c2.32,2.74,6.28,4.57,10.79,4.67
				c1.86,1.52,4.48,2.48,7.4,2.48c2.48,0,4.75-0.69,6.51-1.82c0.88,0.19,1.8,0.3,2.75,0.3c5.62,0,10.18-3.53,10.18-7.88
				c0-4.35-4.55-7.87-10.18-7.87c-1.04,0-2.05,0.12-2.99,0.35c-0.34-0.08-0.7-0.15-1.05-0.2c-1.84-3.13-5.63-5.42-10.17-5.95"/>
			<rect x="857.42" y="564.35" class="st8" width="240.23" height="27.17"/>
		</g>
		<g>
			<g>
				<rect x="711.1" y="564.69" class="st15" width="144.53" height="10.18"/>
				<rect x="711.1" y="569.79" class="st20" width="144.53" height="5.09"/>
			</g>
			<g>
				<rect x="695.47" y="574.87" class="st15" width="175.81" height="12.38"/>
				<rect x="695.47" y="581.06" class="st20" width="175.81" height="6.19"/>
			</g>
			<g>
				<rect x="682.34" y="586.33" class="st15" width="202.06" height="14.23"/>
				<rect x="682.34" y="593.44" class="st20" width="202.06" height="7.12"/>
			</g>
		</g>
		<g>
			<path class="st21" d="M353.32,626.87c0,3.01-15.94,5.45-35.61,5.45c-19.67,0-35.61-2.44-35.61-5.45c0-3.01,15.94-5.45,35.61-5.45
				C337.38,621.42,353.32,623.86,353.32,626.87z"/>
			<g>
				<g>
					<g>
						<path class="st22" d="M363.6,537.21c0,19.62-15.91,35.53-35.53,35.53h-21.47c-19.62,0-35.53-15.91-35.53-35.53l0,0
							c0-19.63,15.91-35.54,35.53-35.54h21.47C347.69,501.67,363.6,517.58,363.6,537.21L363.6,537.21z"/>
					</g>
					<g>
						<path class="st23" d="M315.08,575.26c0,15.85-11.42,28.7-25.5,28.7h-15.4c-14.08,0-25.49-12.85-25.49-28.7l0,0
							c0-15.85,11.41-28.7,25.49-28.7h15.4C303.67,546.55,315.08,559.4,315.08,575.26L315.08,575.26z"/>
					</g>
					<g>
						<path class="st23" d="M383.72,575.26c0,15.85-11.41,28.7-25.49,28.7h-15.4c-14.08,0-25.5-12.85-25.5-28.7l0,0
							c0-15.85,11.41-28.7,25.5-28.7h15.4C372.3,546.55,383.72,559.4,383.72,575.26L383.72,575.26z"/>
					</g>
				</g>
				<g>
					<g>
						<path class="st24" d="M349.9,586.76c0,0,14.07,0.38,12.78-10.75c0,0,2.39,15.24-13.79,13.57L349.9,586.76z"/>
					</g>
					<g>
						<path class="st24" d="M345.96,591.5c0,0-15.81,2-16.61-17.62c0,0-4.47,15.84,12.22,21.48L345.96,591.5z"/>
					</g>
					<g>
						<g>
							<polygon class="st24" points="311.93,627.04 316.04,523.95 320.05,627.04 							"/>
						</g>
						<g>
							<path class="st24" d="M317.33,603.89c0,0,31.88-1.91,35.77-31.56c0,0,1.14,33.78-34.86,38.08L317.33,603.89z"/>
						</g>
						<g>
							<path class="st24" d="M313.34,591.5c0,0-31.55,6.17-40.26-23.95c0,0,1.81,29.79,39.99,30.62L313.34,591.5z"/>
						</g>
						<g>
							<path class="st24" d="M317.33,557.17c0,0,21.77,3.34,22.94-22.98c0,0,5.59,23.51-22.77,27.25L317.33,557.17z"/>
						</g>
						<g>
							<path class="st24" d="M315.08,547.82c0,0-14.2,0.85-17.75-15.55c0,0,2.58,19.52,17.59,19.47L315.08,547.82z"/>
						</g>
					</g>
				</g>
			</g>
		</g>
		<g>
			<path class="st21" d="M468.35,604.57c0,2.09-11.05,3.78-24.69,3.78c-13.63,0-24.69-1.69-24.69-3.78c0-2.09,11.05-3.78,24.69-3.78
				C457.3,600.79,468.35,602.48,468.35,604.57z"/>
			<g>
				<g>
					<g>
						<path class="st22" d="M476.61,545.68c0,12.87-10.43,23.3-23.3,23.3h-14.07c-12.87,0-23.3-10.43-23.3-23.3l0,0
							c0-12.87,10.43-23.3,23.3-23.3h14.07C466.18,522.38,476.61,532.81,476.61,545.68L476.61,545.68z"/>
					</g>
					<g>
						<path class="st23" d="M444.81,570.62c0,10.39-7.48,18.82-16.72,18.82h-10.1c-9.23,0-16.71-8.42-16.71-18.82l0,0
							c0-10.39,7.48-18.82,16.71-18.82h10.1C437.32,551.81,444.81,560.23,444.81,570.62L444.81,570.62z"/>
					</g>
					<g>
						<path class="st23" d="M489.81,570.62c0,10.39-7.48,18.82-16.72,18.82h-10.1c-9.23,0-16.72-8.42-16.72-18.82l0,0
							c0-10.39,7.48-18.82,16.72-18.82h10.1C482.32,551.81,489.81,560.23,489.81,570.62L489.81,570.62z"/>
					</g>
				</g>
				<g>
					<g>
						<path class="st24" d="M467.63,578.16c0,0,9.22,0.25,8.38-7.04c0,0,1.57,9.99-9.04,8.89L467.63,578.16z"/>
					</g>
					<g>
						<path class="st24" d="M465.05,581.27c0,0-10.36,1.31-10.89-11.55c0,0-2.93,10.39,8.01,14.08L465.05,581.27z"/>
					</g>
					<g>
						<g>
							<polygon class="st24" points="442.74,604.57 445.43,536.98 448.06,604.57 							"/>
						</g>
						<g>
							<path class="st24" d="M446.28,589.4c0,0,20.9-1.25,23.45-20.69c0,0,0.75,22.15-22.86,24.96L446.28,589.4z"/>
						</g>
						<g>
							<path class="st24" d="M443.67,581.27c0,0-20.68,4.04-26.39-15.7c0,0,1.19,19.53,26.22,20.08L443.67,581.27z"/>
						</g>
						<g>
							<path class="st24" d="M446.28,558.76c0,0,14.27,2.19,15.04-15.06c0,0,3.67,15.41-14.93,17.86L446.28,558.76z"/>
						</g>
						<g>
							<path class="st24" d="M444.81,552.64c0,0-9.31,0.56-11.63-10.2c0,0,1.69,12.8,11.53,12.77L444.81,552.64z"/>
						</g>
					</g>
				</g>
			</g>
		</g>
		<g>
			<path class="st21" d="M1143.28,626.87c0,3.01,15.94,5.45,35.61,5.45s35.61-2.44,35.61-5.45c0-3.01-15.94-5.45-35.61-5.45
				S1143.28,623.86,1143.28,626.87z"/>
			<g>
				<g>
					<g>
						<path class="st22" d="M1133.01,537.21c0,19.62,15.91,35.53,35.53,35.53h21.47c19.63,0,35.54-15.91,35.54-35.53l0,0
							c0-19.63-15.91-35.54-35.54-35.54h-21.47C1148.92,501.67,1133.01,517.58,1133.01,537.21L1133.01,537.21z"/>
					</g>
					<g>
						<path class="st23" d="M1181.52,575.26c0,15.85,11.42,28.7,25.5,28.7h15.4c14.08,0,25.5-12.85,25.5-28.7l0,0
							c0-15.85-11.42-28.7-25.5-28.7h-15.4C1192.93,546.55,1181.52,559.4,1181.52,575.26L1181.52,575.26z"/>
					</g>
					<g>
						<path class="st23" d="M1112.88,575.26c0,15.85,11.42,28.7,25.5,28.7h15.4c14.08,0,25.5-12.85,25.5-28.7l0,0
							c0-15.85-11.41-28.7-25.5-28.7h-15.4C1124.3,546.55,1112.88,559.4,1112.88,575.26L1112.88,575.26z"/>
					</g>
				</g>
				<g>
					<g>
						<path class="st24" d="M1146.7,586.76c0,0-14.07,0.38-12.78-10.75c0,0-2.39,15.24,13.79,13.57L1146.7,586.76z"/>
					</g>
					<g>
						<path class="st24" d="M1150.65,591.5c0,0,15.81,2,16.61-17.62c0,0,4.47,15.84-12.22,21.48L1150.65,591.5z"/>
					</g>
					<g>
						<g>
							<polygon class="st24" points="1184.67,627.04 1180.57,523.95 1176.55,627.04 							"/>
						</g>
						<g>
							<path class="st24" d="M1179.27,603.89c0,0-31.88-1.91-35.77-31.56c0,0-1.14,33.78,34.86,38.08L1179.27,603.89z"/>
						</g>
						<g>
							<path class="st24" d="M1183.26,591.5c0,0,31.55,6.17,40.26-23.95c0,0-1.81,29.79-39.99,30.62L1183.26,591.5z"/>
						</g>
						<g>
							<path class="st24" d="M1179.27,557.17c0,0-21.77,3.34-22.94-22.98c0,0-5.59,23.51,22.78,27.25L1179.27,557.17z"/>
						</g>
						<g>
							<path class="st24" d="M1181.52,547.82c0,0,14.2,0.85,17.75-15.55c0,0-2.58,19.52-17.59,19.47L1181.52,547.82z"/>
						</g>
					</g>
				</g>
			</g>
		</g>
		<g>
			<path class="st21" d="M1028.25,604.57c0,2.08,11.05,3.78,24.69,3.78c13.63,0,24.69-1.69,24.69-3.78c0-2.09-11.05-3.78-24.69-3.78
				C1039.3,600.79,1028.25,602.48,1028.25,604.57z"/>
			<g>
				<g>
					<g>
						<path class="st22" d="M1019.99,545.68c0,12.87,10.43,23.3,23.3,23.3h14.08c12.87,0,23.3-10.43,23.3-23.3l0,0
							c0-12.87-10.43-23.3-23.3-23.3h-14.08C1030.42,522.38,1019.99,532.81,1019.99,545.68L1019.99,545.68z"/>
					</g>
					<g>
						<path class="st23" d="M1051.8,570.62c0,10.39,7.48,18.82,16.71,18.82h10.1c9.23,0,16.71-8.42,16.71-18.82l0,0
							c0-10.39-7.48-18.82-16.71-18.82h-10.1C1059.28,551.81,1051.8,560.23,1051.8,570.62L1051.8,570.62z"/>
					</g>
					<g>
						<path class="st23" d="M1006.8,570.62c0,10.39,7.48,18.82,16.71,18.82h10.1c9.23,0,16.71-8.42,16.71-18.82l0,0
							c0-10.39-7.48-18.82-16.71-18.82h-10.1C1014.28,551.81,1006.8,560.23,1006.8,570.62L1006.8,570.62z"/>
					</g>
				</g>
				<g>
					<g>
						<path class="st24" d="M1028.97,578.16c0,0-9.22,0.25-8.38-7.04c0,0-1.57,9.99,9.04,8.89L1028.97,578.16z"/>
					</g>
					<g>
						<path class="st24" d="M1031.56,581.27c0,0,10.36,1.31,10.89-11.55c0,0,2.93,10.39-8.01,14.08L1031.56,581.27z"/>
					</g>
					<g>
						<g>
							<polygon class="st24" points="1053.86,604.57 1051.17,536.98 1048.54,604.57 							"/>
						</g>
						<g>
							<path class="st24" d="M1050.32,589.4c0,0-20.9-1.25-23.45-20.69c0,0-0.75,22.15,22.86,24.96L1050.32,589.4z"/>
						</g>
						<g>
							<path class="st24" d="M1052.94,581.27c0,0,20.68,4.04,26.39-15.7c0,0-1.19,19.53-26.22,20.08L1052.94,581.27z"/>
						</g>
						<g>
							<path class="st24" d="M1050.32,558.76c0,0-14.27,2.19-15.04-15.06c0,0-3.67,15.41,14.93,17.86L1050.32,558.76z"/>
						</g>
						<g>
							<path class="st24" d="M1051.8,552.64c0,0,9.31,0.56,11.63-10.2c0,0-1.69,12.8-11.53,12.77L1051.8,552.64z"/>
						</g>
					</g>
				</g>
			</g>
		</g>
		<path class="st2" d="M425.35,54.7H408.6c1.33-2.87,2.08-6.07,2.08-9.45c0-12.43-10.07-22.5-22.5-22.5h-69.4
			c-12.43,0-22.5,10.07-22.5,22.5c0,12.43,10.07,22.5,22.5,22.5h16.75c-1.33,2.87-2.08,6.07-2.08,9.45c0,12.43,10.07,22.5,22.5,22.5
			h69.4c12.43,0,22.5-10.07,22.5-22.5C447.85,64.77,437.78,54.7,425.35,54.7z"/>
		<path class="st2" d="M806.6,59.36h-17.15c0-10.57-8.57-19.14-19.14-19.14h-80.1c0.54-1.78,0.84-3.66,0.84-5.62
			c0-10.57-8.57-19.14-19.14-19.14h-164.2c-10.57,0-19.14,8.57-19.14,19.14c0,10.57,8.57,19.14,19.14,19.14h80.1
			c-0.54,1.78-0.84,3.66-0.84,5.62c0,10.57,8.57,19.14,19.14,19.14h17.15c0,10.57,8.57,19.14,19.14,19.14h164.2
			c10.57,0,19.14-8.57,19.14-19.14C825.74,67.93,817.17,59.36,806.6,59.36z"/>
		<path class="st2" d="M1151.81,68.31h-58.86c-8.27,0-15.48,4.59-19.21,11.36c-1.67-10.45-10.72-18.44-21.64-18.44h-58.86
			c-12.1,0-21.92,9.81-21.92,21.91c0,12.1,9.81,21.92,21.92,21.92h42.5c-0.76,2.22-1.18,4.6-1.18,7.08
			c0,12.1,9.81,21.91,21.92,21.91h58.86c12.1,0,21.92-9.81,21.92-21.91h14.54c12.1,0,21.92-9.81,21.92-21.92
			C1173.72,78.12,1163.91,68.31,1151.81,68.31z"/>
		<path class="st2" d="M1253.51,15.47h-80.71c-12.64,0-22.88,10.24-22.88,22.88c0,12.63,10.24,22.88,22.88,22.88h80.71V15.47z"/>
		<rect x="233.96" y="-1.09" class="st25" width="1020.02" height="802.16"/>
	</g>
</g>
<g id="Layer_3">
</g>
</svg>
